<svg width="1920" height="1080" viewBox="0 0 1920 1080" fill="none" xmlns="http://www.w3.org/2000/svg">
  <!-- Dark gradient background -->
  <rect width="1920" height="1080" fill="url(#paint0_linear)" />
  
  <!-- Grid pattern -->
  <path d="M0 0 L1920 0" stroke="rgba(255,255,255,0.05)" stroke-width="1" />
  <path d="M0 120 L1920 120" stroke="rgba(255,255,255,0.05)" stroke-width="1" />
  <path d="M0 240 L1920 240" stroke="rgba(255,255,255,0.05)" stroke-width="1" />
  <path d="M0 360 L1920 360" stroke="rgba(255,255,255,0.05)" stroke-width="1" />
  <path d="M0 480 L1920 480" stroke="rgba(255,255,255,0.05)" stroke-width="1" />
  <path d="M0 600 L1920 600" stroke="rgba(255,255,255,0.05)" stroke-width="1" />
  <path d="M0 720 L1920 720" stroke="rgba(255,255,255,0.05)" stroke-width="1" />
  <path d="M0 840 L1920 840" stroke="rgba(255,255,255,0.05)" stroke-width="1" />
  <path d="M0 960 L1920 960" stroke="rgba(255,255,255,0.05)" stroke-width="1" />
  <path d="M0 1080 L1920 1080" stroke="rgba(255,255,255,0.05)" stroke-width="1" />
  
  <path d="M0 0 L0 1080" stroke="rgba(255,255,255,0.05)" stroke-width="1" />
  <path d="M120 0 L120 1080" stroke="rgba(255,255,255,0.05)" stroke-width="1" />
  <path d="M240 0 L240 1080" stroke="rgba(255,255,255,0.05)" stroke-width="1" />
  <path d="M360 0 L360 1080" stroke="rgba(255,255,255,0.05)" stroke-width="1" />
  <path d="M480 0 L480 1080" stroke="rgba(255,255,255,0.05)" stroke-width="1" />
  <path d="M600 0 L600 1080" stroke="rgba(255,255,255,0.05)" stroke-width="1" />
  <path d="M720 0 L720 1080" stroke="rgba(255,255,255,0.05)" stroke-width="1" />
  <path d="M840 0 L840 1080" stroke="rgba(255,255,255,0.05)" stroke-width="1" />
  <path d="M960 0 L960 1080" stroke="rgba(255,255,255,0.05)" stroke-width="1" />
  <path d="M1080 0 L1080 1080" stroke="rgba(255,255,255,0.05)" stroke-width="1" />
  <path d="M1200 0 L1200 1080" stroke="rgba(255,255,255,0.05)" stroke-width="1" />
  <path d="M1320 0 L1320 1080" stroke="rgba(255,255,255,0.05)" stroke-width="1" />
  <path d="M1440 0 L1440 1080" stroke="rgba(255,255,255,0.05)" stroke-width="1" />
  <path d="M1560 0 L1560 1080" stroke="rgba(255,255,255,0.05)" stroke-width="1" />
  <path d="M1680 0 L1680 1080" stroke="rgba(255,255,255,0.05)" stroke-width="1" />
  <path d="M1800 0 L1800 1080" stroke="rgba(255,255,255,0.05)" stroke-width="1" />
  <path d="M1920 0 L1920 1080" stroke="rgba(255,255,255,0.05)" stroke-width="1" />
  
  <!-- Glowing circles -->
  <circle cx="960" cy="540" r="300" fill="url(#paint1_radial)" opacity="0.2" />
  <circle cx="960" cy="540" r="200" fill="url(#paint2_radial)" opacity="0.3" />
  <circle cx="960" cy="540" r="100" fill="url(#paint3_radial)" opacity="0.4" />
  
  <!-- Digital circuit lines -->
  <path d="M200 200 L400 200 L400 400 L600 400 L600 600 L800 600 L800 800" stroke="rgba(138, 43, 226, 0.6)" stroke-width="2" />
  <path d="M1720 200 L1520 200 L1520 400 L1320 400 L1320 600 L1120 600 L1120 800" stroke="rgba(138, 43, 226, 0.6)" stroke-width="2" />
  <path d="M960 100 L960 980" stroke="rgba(138, 43, 226, 0.4)" stroke-width="2" />
  
  <!-- Glowing dots at intersections -->
  <circle cx="400" cy="200" r="5" fill="#8A2BE2" />
  <circle cx="400" cy="400" r="5" fill="#8A2BE2" />
  <circle cx="600" cy="400" r="5" fill="#8A2BE2" />
  <circle cx="600" cy="600" r="5" fill="#8A2BE2" />
  <circle cx="800" cy="600" r="5" fill="#8A2BE2" />
  <circle cx="800" cy="800" r="5" fill="#8A2BE2" />
  
  <circle cx="1520" cy="200" r="5" fill="#8A2BE2" />
  <circle cx="1520" cy="400" r="5" fill="#8A2BE2" />
  <circle cx="1320" cy="400" r="5" fill="#8A2BE2" />
  <circle cx="1320" cy="600" r="5" fill="#8A2BE2" />
  <circle cx="1120" cy="600" r="5" fill="#8A2BE2" />
  <circle cx="1120" cy="800" r="5" fill="#8A2BE2" />
  
  <circle cx="960" cy="100" r="5" fill="#8A2BE2" />
  <circle cx="960" cy="300" r="5" fill="#8A2BE2" />
  <circle cx="960" cy="500" r="5" fill="#8A2BE2" />
  <circle cx="960" cy="700" r="5" fill="#8A2BE2" />
  <circle cx="960" cy="900" r="5" fill="#8A2BE2" />
  
  <!-- Floating particles -->
  <circle cx="300" cy="300" r="2" fill="white" opacity="0.8" />
  <circle cx="500" cy="700" r="2" fill="white" opacity="0.8" />
  <circle cx="700" cy="200" r="2" fill="white" opacity="0.8" />
  <circle cx="1200" cy="300" r="2" fill="white" opacity="0.8" />
  <circle cx="1400" cy="700" r="2" fill="white" opacity="0.8" />
  <circle cx="1600" cy="200" r="2" fill="white" opacity="0.8" />
  <circle cx="200" cy="900" r="2" fill="white" opacity="0.8" />
  <circle cx="1700" cy="900" r="2" fill="white" opacity="0.8" />
  
  <!-- Gradients definitions -->
  <defs>
    <linearGradient id="paint0_linear" x1="0" y1="0" x2="1920" y2="1080" gradientUnits="userSpaceOnUse">
      <stop offset="0" stop-color="rgb(4,7,29)" />
      <stop offset="1" stop-color="rgb(12,14,35)" />
    </linearGradient>
    
    <radialGradient id="paint1_radial" cx="0" cy="0" r="1" gradientUnits="userSpaceOnUse" gradientTransform="translate(960 540) rotate(90) scale(300)">
      <stop offset="0" stop-color="#8A2BE2" />
      <stop offset="1" stop-color="#8A2BE2" stop-opacity="0" />
    </radialGradient>
    
    <radialGradient id="paint2_radial" cx="0" cy="0" r="1" gradientUnits="userSpaceOnUse" gradientTransform="translate(960 540) rotate(90) scale(200)">
      <stop offset="0" stop-color="#8A2BE2" />
      <stop offset="1" stop-color="#8A2BE2" stop-opacity="0" />
    </radialGradient>
    
    <radialGradient id="paint3_radial" cx="0" cy="0" r="1" gradientUnits="userSpaceOnUse" gradientTransform="translate(960 540) rotate(90) scale(100)">
      <stop offset="0" stop-color="#8A2BE2" />
      <stop offset="1" stop-color="#8A2BE2" stop-opacity="0" />
    </radialGradient>
  </defs>
</svg>