<svg width="48" height="48" viewBox="0 0 48 48" fill="none" xmlns="http://www.w3.org/2000/svg">
  <path d="M24 4C12.954 4 4 12.954 4 24s8.954 20 20 20 20-8.954 20-20S35.046 4 24 4zm0 36c-8.822 0-16-7.178-16-16S15.178 8 24 8s16 7.178 16 16-7.178 16-16 16z" fill="url(#paint0_linear)"/>
  <path d="M32 16H16v16h16V16zm-4 12h-8v-8h8v8z" fill="url(#paint1_linear)"/>
  <defs>
    <linearGradient id="paint0_linear" x1="4" y1="4" x2="44" y2="44" gradientUnits="userSpaceOnUse">
      <stop stopColor="#FF6B6B"/>
      <stop offset="1" stopColor="#9B51E0"/>
    </linearGradient>
    <linearGradient id="paint1_linear" x1="16" y1="16" x2="32" y2="32" gradientUnits="userSpaceOnUse">
      <stop stopColor="#FF6B6B"/>
      <stop offset="1" stopColor="#9B51E0"/>
    </linearGradient>
  </defs>
</svg> 