<?xml version="1.0" encoding="UTF-8"?>
<svg width="48" height="48" viewBox="0 0 48 48" fill="none" xmlns="http://www.w3.org/2000/svg">
  <defs>
    <linearGradient id="entertainmentGradient" x1="0%" y1="0%" x2="100%" y2="100%">
      <stop offset="0%" style="stop-color:#FF00FF"/>
      <stop offset="100%" style="stop-color:#CC00CC"/>
    </linearGradient>
  </defs>
  <path d="M24 4C12.954 4 4 12.954 4 24s8.954 20 20 20 20-8.954 20-20S35.046 4 24 4zm0 2c9.941 0 18 8.059 18 18s-8.059 18-18 18S6 33.941 6 24 14.059 6 24 6z" fill="url(#entertainmentGradient)"/>
  <path d="M20 16v16l12-8-12-8zm-4 0c-1.1 0-2 .9-2 2v12c0 1.1.9 2 2 2h16c1.1 0 2-.9 2-2V18c0-1.1-.9-2-2-2H16z" fill="url(#entertainmentGradient)"/>
</svg> 